<?xml version="1.0" ?><svg viewBox="0 0 48 48" xmlns="http://www.w3.org/2000/svg" xmlns:xlink="http://www.w3.org/1999/xlink"><defs><style>.cls-1{fill:url(#linear-gradient);}.cls-2{fill:url(#linear-gradient-2);}.cls-3{fill:url(#linear-gradient-3);}.cls-4{fill:url(#linear-gradient-4);}.cls-5{fill:url(#linear-gradient-5);}.cls-6{fill:url(#linear-gradient-6);}.cls-7{fill:url(#linear-gradient-7);}.cls-8{fill:url(#linear-gradient-8);}.cls-9{fill:url(#linear-gradient-9);}.cls-10{fill:url(#linear-gradient-10);}.cls-11{fill:url(#linear-gradient-11);}.cls-12{fill:url(#linear-gradient-12);}.cls-13{fill:url(#linear-gradient-13);}</style><linearGradient gradientUnits="userSpaceOnUse" id="linear-gradient" x1="24" x2="24" y1="22.1" y2="40.01"><stop offset="0" stop-color="#00e3ff"/><stop offset="1" stop-color="#00afd6"/></linearGradient><linearGradient gradientUnits="userSpaceOnUse" id="linear-gradient-2" x1="24" x2="24" y1="15.29" y2="22.38"><stop offset="0" stop-color="#00bde8"/><stop offset="1" stop-color="#009dc1"/></linearGradient><linearGradient id="linear-gradient-3" x1="23.92" x2="24.12" xlink:href="#linear-gradient" y1="15.77" y2="23.75"/><linearGradient gradientUnits="userSpaceOnUse" id="linear-gradient-4" x1="15.5" x2="15.5" y1="37.24" y2="32.81"><stop offset="0" stop-color="#18e7ff"/><stop offset="1" stop-color="#18c7ee"/></linearGradient><linearGradient id="linear-gradient-5" x1="21.5" x2="21.5" xlink:href="#linear-gradient-4" y1="37.24" y2="32.81"/><linearGradient id="linear-gradient-6" x1="27.5" x2="27.5" xlink:href="#linear-gradient-4" y1="37.24" y2="32.81"/><linearGradient id="linear-gradient-7" x1="33.5" x2="33.5" xlink:href="#linear-gradient-4" y1="37.24" y2="32.81"/><linearGradient gradientUnits="userSpaceOnUse" id="linear-gradient-8" x1="15.5" x2="15.5" y1="27.48" y2="36.15"><stop offset="0" stop-color="#009ec9"/><stop offset="1" stop-color="#007ea2"/></linearGradient><linearGradient id="linear-gradient-9" x1="21.5" x2="21.5" xlink:href="#linear-gradient-8" y1="27.48" y2="36.15"/><linearGradient id="linear-gradient-10" x1="27.5" x2="27.5" xlink:href="#linear-gradient-8" y1="27.48" y2="36.15"/><linearGradient id="linear-gradient-11" x1="33.5" x2="33.5" xlink:href="#linear-gradient-8" y1="27.48" y2="36.15"/><linearGradient gradientTransform="translate(-5.55 15.55) rotate(-45)" gradientUnits="userSpaceOnUse" id="linear-gradient-12" x1="14.88" x2="17.01" y1="13.36" y2="15.49"><stop offset="0" stop-color="#4d4d4d"/><stop offset="0.18" stop-color="gray"/><stop offset="1" stop-color="#4d4d4d"/></linearGradient><linearGradient gradientTransform="translate(44.39 47.34) rotate(-135)" id="linear-gradient-13" x1="33.07" x2="30.97" xlink:href="#linear-gradient-12" y1="13.41" y2="15.5"/></defs><title/><g id="icons"><g data-name="Layer 3" id="Layer_3"><path class="cls-1" d="M8,21.47H40a0,0,0,0,1,0,0v13a5,5,0,0,1-5,5H13a5,5,0,0,1-5-5v-13A0,0,0,0,1,8,21.47Z"/><rect class="cls-2" height="2" width="32" x="8" y="21.47"/><rect class="cls-3" height="5" rx="2.5" ry="2.5" width="36" x="6" y="16.47"/><rect class="cls-4" height="9" rx="1.5" ry="1.5" width="3" x="14" y="27.47"/><rect class="cls-5" height="9" rx="1.5" ry="1.5" width="3" x="20" y="27.47"/><rect class="cls-6" height="9" rx="1.5" ry="1.5" width="3" x="26" y="27.47"/><rect class="cls-7" height="9" rx="1.5" ry="1.5" width="3" x="32" y="27.47"/><rect class="cls-8" height="9" rx="1.5" ry="1.5" width="3" x="14" y="26.47"/><rect class="cls-9" height="9" rx="1.5" ry="1.5" width="3" x="20" y="26.47"/><rect class="cls-10" height="9" rx="1.5" ry="1.5" width="3" x="26" y="26.47"/><rect class="cls-11" height="9" rx="1.5" ry="1.5" width="3" x="32" y="26.47"/><rect class="cls-12" height="15.59" rx="1.5" ry="1.5" transform="translate(14.92 -7.07) rotate(45)" width="3" x="14.5" y="6.68"/><rect class="cls-13" height="15.59" rx="1.5" ry="1.5" transform="translate(64.86 2.08) rotate(135)" width="3" x="30.5" y="6.68"/></g></g></svg>